<svg xmlns="http://www.w3.org/2000/svg" viewBox="0 0 35 35"><defs><style>.Estilo-gr√°fico-36,.a6573797-3dff-4f53-9b96-eff873bf808a,.bd640480-c4b1-482e-a38b-d665dd83d532{fill:none;}.Estilo-gr√°fico-36{stroke:#4f4640;stroke-linejoin:round;}.Estilo-gr√°fico-36,.a6573797-3dff-4f53-9b96-eff873bf808a{stroke-linecap:round;stroke-width:1.4px;}.a6573797-3dff-4f53-9b96-eff873bf808a{stroke:#504741;stroke-miterlimit:10;}.bd640480-c4b1-482e-a38b-d665dd83d532{opacity:0.27;}</style></defs><g id="f3417eb7-6811-421e-a5de-4ab4efdf2713" data-name="Layer 2"><g id="b88c225a-d3e0-4944-92ab-3cffc564b62a" data-name="Capa 2"><path class="Estilo-gr√°fico-36" d="M21.163,12.9v.5c0,2.1-1.72,3.423-3.823,3.423h0c-2.1,0-3.822-1.32-3.822-3.423v-.5"/><rect class="Estilo-gr√°fico-36" x="5.946" y="22.995" width="23.107" height="10.575"/><path class="Estilo-gr√°fico-36" d="M17.673,8.841l4.379,4.379,1.5-1.506a2.134,2.134,0,0,0,0-3.01l-3.9-3.9a2.123,2.123,0,0,0-.629-.434"/><path class="Estilo-gr√°fico-36" d="M15.058,2.458h0a2.494,2.494,0,0,1,2.494,2.494v7.4a0,0,0,0,1,0,0H15.058a2.494,2.494,0,0,1-2.494-2.494V4.952A2.494,2.494,0,0,1,15.058,2.458Z" transform="translate(9.648 -8.478) rotate(45)"/><path class="Estilo-gr√°fico-36" d="M26.432,23.008V21.845a2.464,2.464,0,0,0-2.464-2.465h0l-4.748-.72V16.413"/><path class="Estilo-gr√°fico-36" d="M8.22,23.008V21.845a2.465,2.465,0,0,1,2.465-2.465h0l4.747-.72V16.413"/><line class="Estilo-gr√°fico-36" x1="13.584" y1="23.008" x2="13.584" y2="32.976"/><line class="Estilo-gr√°fico-36" x1="21.319" y1="23.008" x2="21.319" y2="32.976"/><line class="Estilo-gr√°fico-36" x1="29.054" y1="23.008" x2="29.054" y2="32.976"/><line class="Estilo-gr√°fico-36" x1="13.584" y1="23.008" x2="13.584" y2="32.976"/><line class="Estilo-gr√°fico-36" x1="21.319" y1="23.008" x2="21.319" y2="32.976"/><line class="Estilo-gr√°fico-36" x1="29.054" y1="23.008" x2="29.054" y2="32.976"/><line class="Estilo-gr√°fico-36" x1="25.083" y1="28.282" x2="29.054" y2="28.282"/><line class="Estilo-gr√°fico-36" x1="11.826" y1="28.282" x2="18.326" y2="28.282"/><line class="Estilo-gr√°fico-36" x1="6.203" y1="28.282" x2="9.483" y2="28.282"/><line class="Estilo-gr√°fico-36" x1="12.326" y1="23.008" x2="12.326" y2="21.845"/><line class="Estilo-gr√°fico-36" x1="22.326" y1="23.008" x2="22.326" y2="21.845"/><path class="a6573797-3dff-4f53-9b96-eff873bf808a" d="M3.691,6.64q-.009-.117-.009-.243"/><path class="a6573797-3dff-4f53-9b96-eff873bf808a" d="M3.682,14.513c0-2.028,1.822-2.028,1.822-4.057a2.423,2.423,0,0,0-.43-1.442"/><path class="Estilo-gr√°fico-36" d="M3.691,6.64q-.009-.117-.009-.243"/><path class="Estilo-gr√°fico-36" d="M3.682,14.513c0-2.028,1.822-2.028,1.822-4.057a2.423,2.423,0,0,0-.43-1.442"/><path class="a6573797-3dff-4f53-9b96-eff873bf808a" d="M30.134,14.271c.006.077.009.158.009.242"/><path class="a6573797-3dff-4f53-9b96-eff873bf808a" d="M29.091,8.585a2.579,2.579,0,0,0-.769,1.869,2.423,2.423,0,0,0,.429,1.442"/><path class="a6573797-3dff-4f53-9b96-eff873bf808a" d="M30.143,6.4c0,.037,0,.073,0,.109"/><path class="Estilo-gr√°fico-36" d="M30.134,14.271c.006.077.009.158.009.242"/><path class="Estilo-gr√°fico-36" d="M29.091,8.585a2.579,2.579,0,0,0-.769,1.869,2.423,2.423,0,0,0,.429,1.442"/><path class="Estilo-gr√°fico-36" d="M30.143,6.4c0,.037,0,.073,0,.109"/><rect class="bd640480-c4b1-482e-a38b-d665dd83d532" width="35" height="35"/></g></g></svg>